<svg width="91" height="29" viewBox="0 0 91 29" fill="none" xmlns="http://www.w3.org/2000/svg">
<mask id="mask0_116_14403" style="mask-type:luminance" maskUnits="userSpaceOnUse" x="0" y="0" width="29" height="29">
<path d="M29 28.342H0.65802V-1.52588e-05H29V28.342Z" fill="white"/>
</mask>
<g mask="url(#mask0_116_14403)">
<path d="M3.43252 15.9135C3.31741 16.343 3.31739 16.7952 3.43247 17.2247C3.54755 17.6542 3.77367 18.0458 4.0881 18.3602L10.64 24.9121C10.9544 25.2265 11.3461 25.4527 11.7755 25.5677C12.205 25.6828 12.6573 25.6828 13.0867 25.5677L19.2177 23.9249C19.2815 24.7648 19.5739 25.5713 20.0633 26.2569L12.679 28.2354C12.149 28.3774 11.5909 28.3774 11.0609 28.2353C10.5309 28.0933 10.0476 27.8143 9.65957 27.4263L1.57402 19.3408C1.18604 18.9528 0.907029 18.4695 0.765019 17.9395C0.623008 17.4094 0.623005 16.8514 0.765009 16.3214L2.81953 8.65386C3.49116 9.16676 4.29078 9.48532 5.13111 9.57465L3.43252 15.9135Z" fill="#2E90FA"/>
<path d="M24.4711 18.9791L26.2264 12.4284C26.3416 11.9989 26.3414 11.5467 26.2264 11.1173C26.1113 10.6877 25.8851 10.2961 25.5707 9.98171L19.0188 3.42964C18.7044 3.11522 18.3128 2.88922 17.8832 2.77406C17.4538 2.65906 17.0015 2.65906 16.5721 2.77406L10.2332 4.47265C10.1439 3.63227 9.8254 2.83264 9.31244 2.16107L16.9799 0.106552C17.5099 -0.0355091 18.068 -0.0355091 18.598 0.106552C19.1281 0.248613 19.6113 0.527512 19.9994 0.915569L28.0849 9.00111C28.473 9.38917 28.7519 9.8724 28.8939 10.4025C29.036 10.9325 29.036 11.4906 28.8939 12.0205L26.7619 19.9751C26.1045 19.4385 25.3118 19.0939 24.4711 18.9791Z" fill="#2E90FA"/>
<path d="M3.00361 7.59649C2.48433 7.07729 2.1307 6.41556 1.98743 5.69541C1.84415 4.97511 1.91768 4.22851 2.19871 3.55003C2.47973 2.8717 2.95564 2.29177 3.56623 1.88372C4.17684 1.47583 4.8947 1.25797 5.62907 1.25797C6.36342 1.25797 7.0813 1.47583 7.69189 1.88372C8.3025 2.29177 8.7784 2.8717 9.05942 3.55003C9.34046 4.22851 9.41398 4.97511 9.2707 5.69541C9.12744 6.41556 8.77381 7.07729 8.25453 7.59649C7.55767 8.29173 6.61346 8.68225 5.62907 8.68225C4.64467 8.68225 3.70047 8.29173 3.00361 7.59649Z" fill="#2E90FA"/>
<path d="M21.2116 26.188C20.6924 25.6688 20.3387 25.0072 20.1955 24.2869C20.0522 23.5667 20.1257 22.8201 20.4068 22.1416C20.6878 21.4632 21.1637 20.8833 21.7742 20.4753C22.3849 20.0673 23.1027 19.8495 23.837 19.8495C24.5715 19.8495 25.2893 20.0673 25.9 20.4753C26.5105 20.8833 26.9864 21.4632 27.2674 22.1416C27.5485 22.8201 27.622 23.5667 27.4787 24.2869C27.3355 25.0072 26.9817 25.6688 26.4625 26.188C25.7658 26.8833 24.8215 27.2738 23.837 27.2738C22.8527 27.2738 21.9084 26.8833 21.2116 26.188Z" fill="#2E90FA"/>
<path d="M17.0087 4.32873C16.8595 4.32873 16.7112 4.34825 16.5671 4.38684L10.7647 5.94168C10.5712 6.97486 10.07 7.92548 9.32672 8.66869C8.58344 9.4119 7.63287 9.91327 6.5997 10.1067L5.04501 15.9086C4.96793 16.198 4.96815 16.5026 5.04567 16.7919C5.12319 17.0812 5.27527 17.345 5.48672 17.5571L11.4423 23.5128C11.6541 23.7247 11.918 23.877 12.2074 23.9546C12.4968 24.0321 12.8015 24.0321 13.0909 23.9545L18.7306 22.4433C18.9543 21.4165 19.4829 20.4813 20.2472 19.76C21.0115 19.0387 21.9758 18.5651 23.0137 18.4012L24.6127 12.4324C24.6897 12.1429 24.6895 11.8383 24.6119 11.5491C24.5344 11.2598 24.3824 10.996 24.1708 10.7838L18.2153 4.82825C18.0572 4.66943 17.869 4.54336 17.6619 4.45772C17.4548 4.37193 17.2328 4.32811 17.0087 4.32873Z" fill="#2E90FA"/>
</g>
<path d="M40.96 20.283C40.1813 20.283 39.4773 20.1497 38.848 19.883C38.2293 19.6164 37.7387 19.2324 37.376 18.731C37.0133 18.2297 36.8267 17.6377 36.816 16.955H39.216C39.248 17.4137 39.408 17.7764 39.696 18.043C39.9947 18.3097 40.4 18.443 40.912 18.443C41.4347 18.443 41.8453 18.3204 42.144 18.075C42.4427 17.819 42.592 17.4884 42.592 17.083C42.592 16.7524 42.4907 16.4804 42.288 16.267C42.0853 16.0537 41.8293 15.8884 41.52 15.771C41.2213 15.643 40.8053 15.5044 40.272 15.355C39.5467 15.1417 38.9547 14.9337 38.496 14.731C38.048 14.5177 37.6587 14.203 37.328 13.787C37.008 13.3604 36.848 12.795 36.848 12.091C36.848 11.4297 37.0133 10.8537 37.344 10.363C37.6747 9.87235 38.1387 9.49902 38.736 9.24302C39.3333 8.97635 40.016 8.84302 40.784 8.84302C41.936 8.84302 42.8693 9.12569 43.584 9.69102C44.3093 10.2457 44.7093 11.0244 44.784 12.027H42.32C42.2987 11.643 42.1333 11.3284 41.824 11.083C41.5253 10.827 41.1253 10.699 40.624 10.699C40.1867 10.699 39.8347 10.811 39.568 11.035C39.312 11.259 39.184 11.5844 39.184 12.011C39.184 12.3097 39.28 12.5604 39.472 12.763C39.6747 12.955 39.92 13.115 40.208 13.243C40.5067 13.3604 40.9227 13.499 41.456 13.659C42.1813 13.8724 42.7733 14.0857 43.232 14.299C43.6907 14.5124 44.0853 14.8324 44.416 15.259C44.7467 15.6857 44.912 16.2457 44.912 16.939C44.912 17.5364 44.7573 18.091 44.448 18.603C44.1387 19.115 43.6853 19.5257 43.088 19.835C42.4907 20.1337 41.7813 20.283 40.96 20.283ZM54.454 9.00302V10.811H51.478V20.171H49.238V10.811H46.262V9.00302H54.454ZM61.2724 20.283C60.227 20.283 59.267 20.0377 58.3924 19.547C57.5177 19.0564 56.8244 18.379 56.3124 17.515C55.8004 16.6404 55.5444 15.6537 55.5444 14.555C55.5444 13.467 55.8004 12.491 56.3124 11.627C56.8244 10.7524 57.5177 10.0697 58.3924 9.57902C59.267 9.08835 60.227 8.84302 61.2724 8.84302C62.3284 8.84302 63.2884 9.08835 64.1524 9.57902C65.027 10.0697 65.715 10.7524 66.2164 11.627C66.7284 12.491 66.9844 13.467 66.9844 14.555C66.9844 15.6537 66.7284 16.6404 66.2164 17.515C65.715 18.379 65.027 19.0564 64.1524 19.547C63.2777 20.0377 62.3177 20.283 61.2724 20.283ZM61.2724 18.283C61.9444 18.283 62.5364 18.1337 63.0484 17.835C63.5604 17.5257 63.9604 17.0884 64.2484 16.523C64.5364 15.9577 64.6804 15.3017 64.6804 14.555C64.6804 13.8084 64.5364 13.1577 64.2484 12.603C63.9604 12.0377 63.5604 11.6057 63.0484 11.307C62.5364 11.0084 61.9444 10.859 61.2724 10.859C60.6004 10.859 60.003 11.0084 59.4804 11.307C58.9684 11.6057 58.5684 12.0377 58.2804 12.603C57.9924 13.1577 57.8484 13.8084 57.8484 14.555C57.8484 15.3017 57.9924 15.9577 58.2804 16.523C58.5684 17.0884 58.9684 17.5257 59.4804 17.835C60.003 18.1337 60.6004 18.283 61.2724 18.283ZM68.1069 14.571C68.1069 13.4724 68.3522 12.491 68.8429 11.627C69.3442 10.7524 70.0215 10.075 70.8749 9.59502C71.7389 9.10435 72.7042 8.85902 73.7709 8.85902C75.0189 8.85902 76.1122 9.17902 77.0509 9.81902C77.9895 10.459 78.6455 11.3444 79.0189 12.475H76.4429C76.1869 11.9417 75.8242 11.5417 75.3549 11.275C74.8962 11.0084 74.3629 10.875 73.7549 10.875C73.1042 10.875 72.5229 11.0297 72.0109 11.339C71.5095 11.6377 71.1149 12.0644 70.8269 12.619C70.5495 13.1737 70.4109 13.8244 70.4109 14.571C70.4109 15.307 70.5495 15.9577 70.8269 16.523C71.1149 17.0777 71.5095 17.5097 72.0109 17.819C72.5229 18.1177 73.1042 18.267 73.7549 18.267C74.3629 18.267 74.8962 18.1337 75.3549 17.867C75.8242 17.5897 76.1869 17.1844 76.4429 16.651H79.0189C78.6455 17.7924 77.9895 18.683 77.0509 19.323C76.1229 19.9524 75.0295 20.267 73.7709 20.267C72.7042 20.267 71.7389 20.027 70.8749 19.547C70.0215 19.0564 69.3442 18.379 68.8429 17.515C68.3522 16.651 68.1069 15.6697 68.1069 14.571ZM87.2361 20.171L83.1721 15.195V20.171H80.9321V9.00302H83.1721V14.011L87.2361 9.00302H89.9401L85.3321 14.539L90.0681 20.171H87.2361Z" fill="#2E90FA"/>
</svg>
